<?xml version="1.0" encoding="UTF-8" standalone="no"?>
<!-- Created with Inkscape (http://www.inkscape.org/) -->

<svg
   xmlns:dc="http://purl.org/dc/elements/1.1/"
   xmlns:cc="http://creativecommons.org/ns#"
   xmlns:rdf="http://www.w3.org/1999/02/22-rdf-syntax-ns#"
   xmlns:svg="http://www.w3.org/2000/svg"
   xmlns="http://www.w3.org/2000/svg"
   xmlns:sodipodi="http://sodipodi.sourceforge.net/DTD/sodipodi-0.dtd"
   xmlns:inkscape="http://www.inkscape.org/namespaces/inkscape"
   width="42.911716mm"
   height="51.56366mm"
   viewBox="0 0 152.04939 182.70588"
   id="svg11560"
   version="1.1"
   inkscape:version="0.91 r13725"
   sodipodi:docname="fish_logo.svg">
  <defs
     id="defs11562" />
  <sodipodi:namedview
     id="base"
     pagecolor="#ffffff"
     bordercolor="#666666"
     borderopacity="1.0"
     inkscape:pageopacity="0.0"
     inkscape:pageshadow="2"
     inkscape:zoom="0.35"
     inkscape:cx="-414.68959"
     inkscape:cy="148.4958"
     inkscape:document-units="px"
     inkscape:current-layer="layer1"
     showgrid="false"
     fit-margin-top="0"
     fit-margin-left="0"
     fit-margin-right="0"
     fit-margin-bottom="0"
     inkscape:window-width="1366"
     inkscape:window-height="715"
     inkscape:window-x="0"
     inkscape:window-y="0"
     inkscape:window-maximized="1" />
  <metadata
     id="metadata11565">
    <rdf:RDF>
      <cc:Work
         rdf:about="">
        <dc:format>image/svg+xml</dc:format>
        <dc:type
           rdf:resource="http://purl.org/dc/dcmitype/StillImage" />
        <dc:title></dc:title>
      </cc:Work>
    </rdf:RDF>
  </metadata>
  <g
     inkscape:label="Calque 1"
     inkscape:groupmode="layer"
     id="layer1"
     transform="translate(-203.9753,-498.15212)">
    <text
       transform="matrix(1.0181611,0,-0.34789988,0.98216284,0,0)"
       sodipodi:linespacing="125%"
       id="text10058"
       y="685.83624"
       x="506.40717"
       style="font-style:normal;font-variant:normal;font-weight:normal;font-stretch:normal;font-size:31.51739502px;line-height:125%;font-family:Comfortaa;-inkscape-font-specification:'Comfortaa, Normal';text-align:center;letter-spacing:0px;word-spacing:0px;writing-mode:lr-tb;text-anchor:middle;opacity:0.95;fill:#808080;fill-opacity:0.95294118;stroke:none;stroke-width:1px;stroke-linecap:butt;stroke-linejoin:miter;stroke-opacity:1;filter:url(#filter4218)"
       xml:space="preserve"
       inkscape:export-xdpi="100"
       inkscape:export-ydpi="100"><tspan
         y="685.83624"
         x="506.40717"
         id="tspan10060"
         sodipodi:role="line">company</tspan></text>
    <g
       style="opacity:0.95;fill:#808080;stroke:none;filter:url(#filter4218)"
       id="g8189"
       transform="translate(-216.0247,-64.209208)"
       inkscape:export-xdpi="100"
       inkscape:export-ydpi="100">
      <path
         style="fill:#808080;fill-rule:evenodd;stroke:none;stroke-width:1px;stroke-linecap:butt;stroke-linejoin:miter;stroke-opacity:1"
         d="m 512.31445,599.50781 c -23.05637,0.13812 -46.68554,13.80486 -46.68554,39.19727 -3.55805,5.64308 -2.99303,11.3321 -9.54493,13.78906 -8.72019,2.59179 -14.8496,11.24402 -14.8496,21.21289 5.26816,-0.39513 7.40737,-3.92798 11.31445,-6.71875 6.98407,4.67296 8.48437,9.2234 8.48437,17.32422 21.11599,-13.13972 -13.07823,-44.90039 23.2461,-44.90039 1.21563,-9.20168 0.53812,-0.59855 1.23828,1.50195 1.1654,3.49617 3.44703,1.33452 3.31445,7.46875 1.49898,0.33326 2.00056,-1.55301 3.22656,-2.16601 6.82749,-3.41375 5.8909,-10.14398 8.21875,-16.35157 0.63892,1.63461 0.61914,3.38168 0.61914,5.21485 5.91126,-2.87396 11.58851,-0.34148 17.14844,0.35351 -1.95942,-4.8501 -6.21661,-7.72038 1.14844,-19.35547 -4.40719,9.71077 -3.82493,15.75057 3.00586,20.68165 6.29302,1.57325 25.96708,5.07934 30.93555,-0.88282 1.52225,0.43412 5.02689,-1.72173 2.65039,-2.74023 3.43467,-1.00425 1.8531,-4.77267 -1.10352,-5.08203 -4.55139,-19.48767 -23.26334,-28.66132 -42.36719,-28.54688 z m 20.91016,13.83008 a 2.9389126,2.9389126 0 0 1 2.93945,2.9375 2.9389126,2.9389126 0 0 1 -2.93945,2.93945 2.9389126,2.9389126 0 0 1 -2.93945,-2.93945 2.9389126,2.9389126 0 0 1 2.93945,-2.9375 z"
         id="path8108"
         inkscape:connector-curvature="0" />
      <path
         style="fill:#808080;fill-rule:evenodd;stroke:none;stroke-width:1px;stroke-linecap:butt;stroke-linejoin:miter;stroke-opacity:1"
         d="m 510.3498,597.44145 c -9.05467,-0.18534 -16.5576,2.03467 -24.08076,5.8572 -1.47498,-3.64599 -3.46844,-4.4354 -7.9693,-3.69941 9.54286,-6.88862 20.33995,-10.25229 32.80613,-8.86123 0.07,2.38781 -10e-4,4.80995 -0.75607,6.70344 z"
         id="path8115"
         inkscape:connector-curvature="0"
         sodipodi:nodetypes="ccccc" />
      <path
         style="fill:#808080;fill-rule:evenodd;stroke:none;stroke-width:1px;stroke-linecap:butt;stroke-linejoin:miter;stroke-opacity:1"
         d="m 436.99199,683.60602 c 47.53097,20.08537 89.33041,-56.95353 127.98633,-1.76777 -48.49604,-38.92109 -79.94269,37.44082 -127.98633,1.76777 z"
         id="path8153"
         inkscape:connector-curvature="0"
         sodipodi:nodetypes="ccc" />
      <path
         style="fill:#808080;fill-rule:evenodd;stroke:none;stroke-width:1px;stroke-linecap:butt;stroke-linejoin:miter;stroke-opacity:1"
         d="m 420,682.3622 c 51.39888,71.63985 93.92888,-14.28704 134.25,2.75 -41.2587,-27.19779 -63.82385,48.70687 -134.25,-2.75 z"
         id="path8155"
         inkscape:connector-curvature="0"
         sodipodi:nodetypes="ccc" />
      <path
         style="fill:#808080;fill-rule:evenodd;stroke:none;stroke-width:1px;stroke-linecap:butt;stroke-linejoin:miter;stroke-opacity:1"
         d="m 514.77374,699.86947 c 17.19253,-10.45319 34.0127,-16.65897 57.27565,-1.59099 -17.95129,-4.96974 -38.88678,-7.17576 -57.27565,1.59099 z"
         id="path8159"
         inkscape:connector-curvature="0"
         sodipodi:nodetypes="ccc" />
      <path
         style="color:#000000;clip-rule:nonzero;display:inline;overflow:visible;visibility:visible;opacity:1;isolation:auto;mix-blend-mode:normal;color-interpolation:sRGB;color-interpolation-filters:linearRGB;solid-color:#000000;solid-opacity:1;fill:#808080;fill-opacity:1;fill-rule:nonzero;stroke:none;stroke-width:5;stroke-linecap:round;stroke-linejoin:round;stroke-miterlimit:4;stroke-dasharray:none;stroke-dashoffset:0;stroke-opacity:1;color-rendering:auto;image-rendering:auto;shape-rendering:auto;text-rendering:auto;enable-background:accumulate"
         d="m 496,562.36133 a 74.5,74.5 0 0 0 -74.5,74.5 74.5,74.5 0 0 0 17.02539,47.3457 c 2.41713,0.91867 4.82117,1.60359 7.20899,2.06055 A 70.5,70.5 0 0 1 425.5,636.86133 a 70.5,70.5 0 0 1 70.5,-70.5 70.5,70.5 0 0 1 70.5,70.5 70.5,70.5 0 0 1 -9.5918,35.36719 c 0.95746,0.93013 1.91368,1.91916 2.86719,2.99218 A 74.5,74.5 0 0 0 570.5,636.86133 a 74.5,74.5 0 0 0 -74.5,-74.5 z"
         id="path8173"
         inkscape:connector-curvature="0" />
      <path
         style="color:#000000;clip-rule:nonzero;display:inline;overflow:visible;visibility:visible;opacity:1;isolation:auto;mix-blend-mode:normal;color-interpolation:sRGB;color-interpolation-filters:linearRGB;solid-color:#000000;solid-opacity:1;fill:#808080;fill-opacity:1;fill-rule:nonzero;stroke:none;stroke-width:5;stroke-linecap:round;stroke-linejoin:round;stroke-miterlimit:4;stroke-dasharray:none;stroke-dashoffset:0;stroke-opacity:1;color-rendering:auto;image-rendering:auto;shape-rendering:auto;text-rendering:auto;enable-background:accumulate"
         d="m 543.86328,693.92969 c -2.32857,-0.0263 -4.66012,0.0531 -6.98633,0.23437 A 70.5,70.5 0 0 1 496,707.36133 a 70.5,70.5 0 0 1 -10.03906,-0.8125 c -2.479,1.01056 -4.97626,1.90709 -7.49219,2.64062 A 74.5,74.5 0 0 0 496,711.36133 74.5,74.5 0 0 0 543.86328,693.92969 Z"
         id="path8163"
         inkscape:connector-curvature="0" />
    </g>
  </g>
</svg>
